<?xml version="1.0" encoding="iso-8859-1"?>
<!-- Generator: Adobe Illustrator 19.0.0, SVG Export Plug-In . SVG Version: 6.00 Build 0)  -->
<svg version="1.1" id="Layer_1" xmlns="http://www.w3.org/2000/svg" xmlns:xlink="http://www.w3.org/1999/xlink" x="0px" y="0px"
	 viewBox="0 0 512 512" fill="white" xml:space="preserve">
<g>
	<g>
		<path d="M314.779,6.531c-79.135,0-147.522,46.857-178.904,114.277C57.072,146.663,0,220.911,0,308.248
			c0,108.748,88.473,197.221,197.221,197.221c79.135,0,147.522-46.857,178.904-114.277C454.929,365.336,512,291.089,512,203.752
			C512,95.004,423.527,6.531,314.779,6.531z M197.221,473.501c-91.121,0-165.253-74.131-165.253-165.253
			S106.1,142.995,197.221,142.995s165.253,74.132,165.253,165.253S288.342,473.501,197.221,473.501z M389.763,350.99
			c3.054-13.769,4.679-28.068,4.679-42.742c0-108.748-88.473-197.221-197.221-197.221c-6.692,0-13.306,0.339-19.829,0.993
			c29.675-44.299,80.179-73.522,137.387-73.522c91.121,0,165.253,74.132,165.253,165.253
			C480.032,267.894,443.298,323.616,389.763,350.99z"/>
	</g>
</g>
<g>
	<g>
		<circle cx="339.956" cy="101.039" r="25.182"/>
	</g>
</g>
<g>
	<g>
		<circle cx="435.38" cy="188.823" r="25.182"/>
	</g>
</g>
<g>
	<g>
		<circle cx="193.384" cy="299.538" r="25.182"/>
	</g>
</g>
<g>
	<g>
		<circle cx="166.073" cy="404.659" r="25.182"/>
	</g>
</g>
<g>
	<g>
		<circle cx="174.555" cy="214.003" r="25.182"/>
	</g>
</g>
<g>
	<g>
		<circle cx="92.376" cy="281.956" r="25.182"/>
	</g>
</g>
<g>
	<g>
		<circle cx="306.507" cy="299.538" r="25.182"/>
	</g>
</g>
<g>
</g>
<g>
</g>
<g>
</g>
<g>
</g>
<g>
</g>
<g>
</g>
<g>
</g>
<g>
</g>
<g>
</g>
<g>
</g>
<g>
</g>
<g>
</g>
<g>
</g>
<g>
</g>
<g>
</g>
</svg>
